<svg width="147" height="178" viewBox="0 0 147 178" fill="none" xmlns="http://www.w3.org/2000/svg">
<g id="lettermark_group">
<path id="lettermark_rig_base" d="M19.4461 57.7052C70.7795 -5.76147 160.88 -22.2829 81.4467 66.7052C2.01347 155.693 138.447 57.7052 119.947 96.2052M119.947 96.2052C101.447 134.705 103 160.5 103 175.5M119.947 96.2052C38.3578 266 -92.82 112.705 138.447 6.20489M119.947 96.2052C119.947 96.2052 96.5 137.689 143.447 160.5M42.9463 33.7742C71 85.5 56.5 135.5 3.5 171.5" stroke="#F3D478" stroke-width="10"/>
<path id="dot" d="M146.5 55.6296C146.5 61.1525 142.023 65.6296 136.5 65.6296C130.977 65.6296 126.5 61.1525 126.5 55.6296C126.5 50.1068 130.977 45.6296 136.5 45.6296C142.023 45.6296 146.5 50.1068 146.5 55.6296Z" fill="#F3D478"/>
</g>
</svg>
